Linefont[dflt,min].ufo
<glyph name="neg.-101" format="2">
	<advance width="25"/>
	<outline>
		<contour>
			<point x="-0.004" y="0.309" type="line"/>
			<point x="24.996" y="-1009.691" type="line"/>
			<point x="0.004" y="-1010.309" type="line"/>
			<point x="-24.996" y="-0.309" type="line"/>
		</contour>
	</outline>
</glyph>
<glyph name="neg.-103" format="2">
	<advance width="25"/>
	<outline>
		<contour>
			<point x="-0.004" y="0.303" type="line"/>
			<point x="24.996" y="-1029.697" type="line"/>
			<point x="0.004" y="-1030.303" type="line"/>
			<point x="-24.996" y="-0.303" type="line"/>
		</contour>
	</outline>
</glyph>
<glyph name="neg.-104" format="2">
	<advance width="25"/>
	<outline>
		<contour>
			<point x="-0.004" y="0.3" type="line"/>
			<point x="24.996" y="-1039.7" type="line"/>
			<point x="0.004" y="-1040.3" type="line"/>
			<point x="-24.996" y="-0.3" type="line"/>
		</contour>
	</outline>
</glyph>
<glyph name="neg.-108" format="2">
	<advance width="25"/>
	<outline>
		<contour>
			<point x="-0.003" y="0.289" type="line"/>
			<point x="24.997" y="-1079.711" type="line"/>
			<point x="0.003" y="-1080.289" type="line"/>
			<point x="-24.997" y="-0.289" type="line"/>
		</contour>
	</outline>
</glyph>
<glyph name="neg.-109" format="2">
	<advance width="25"/>
	<outline>
		<contour>
			<point x="-0.003" y="0.287" type="line"/>
			<point x="24.997" y="-1089.713" type="line"/>
			<point x="0.003" y="-1090.287" type="line"/>
			<point x="-24.997" y="-0.287" type="line"/>
		</contour>
	</outline>
</glyph>
<glyph name="neg.-11" format="2">
	<advance width="25"/>
	<outline>
		<contour>
			<point x="-0.311" y="2.77" type="line"/>
			<point x="24.689" y="-107.23" type="line"/>
			<point x="0.311" y="-112.77" type="line"/>
			<point x="-24.689" y="-2.77" type="line"/>
		</contour>
	</outline>
</glyph>
<glyph name="neg.-110" format="2">
	<advance width="25"/>
	<outline>
		<contour>
			<point x="-0.003" y="0.284" type="line"/>
			<point x="24.997" y="-1099.716" type="line"/>
			<point x="0.003" y="-1100.284" type="line"/>
			<point x="-24.997" y="-0.284" type="line"/>
		</contour>
	</outline>
</glyph>
<glyph name="neg.-111" format="2">
	<advance width="25"/>
	<outline>
		<contour>
			<point x="-0.003" y="0.281" type="line"/>
			<point x="24.997" y="-1109.719" type="line"/>
			<point x="0.003" y="-1110.281" type="line"/>
			<point x="-24.997" y="-0.281" type="line"/>
		</contour>
	</outline>
</glyph>
<glyph name="neg.-113" format="2">
	<advance width="25"/>
	<outline>
		<contour>
			<point x="-0.003" y="0.276" type="line"/>
			<point x="24.997" y="-1129.724" type="line"/>
			<point x="0.003" y="-1130.276" type="line"/>
			<point x="-24.997" y="-0.276" type="line"/>
		</contour>
	</outline>
</glyph>
<glyph name="neg.-114" format="2">
	<advance width="25"/>
	<outline>
		<contour>
			<point x="-0.003" y="0.274" type="line"/>
			<point x="24.997" y="-1139.726" type="line"/>
			<point x="0.003" y="-1140.274" type="line"/>
			<point x="-24.997" y="-0.274" type="line"/>
		</contour>
	</outline>
</glyph>
<glyph name="neg.-120" format="2">
	<advance width="25"/>
	<outline>
		<contour>
			<point x="-0.003" y="0.26" type="line"/>
			<point x="24.997" y="-1199.74" type="line"/>
			<point x="0.003" y="-1200.26" type="line"/>
			<point x="-24.997" y="-0.26" type="line"/>
		</contour>
	</outline>
</glyph>
<glyph name="neg.-122" format="2">
	<advance width="25"/>
	<outline>
		<contour>
			<point x="-0.003" y="0.256" type="line"/>
			<point x="24.997" y="-1219.744" type="line"/>
			<point x="0.003" y="-1220.256" type="line"/>
			<point x="-24.997" y="-0.256" type="line"/>
		</contour>
	</outline>
</glyph>
<glyph name="neg.-127" format="2">
	<advance width="25"/>
	<outline>
		<contour>
			<point x="-0.002" y="0.246" type="line"/>
			<point x="24.998" y="-1269.754" type="line"/>
			<point x="0.002" y="-1270.246" type="line"/>
			<point x="-24.998" y="-0.246" type="line"/>
		</contour>
	</outline>
</glyph>
<glyph name="neg.-13" format="2">
	<advance width="25"/>
	<outline>
		<contour>
			<point x="-0.225" y="2.361" type="line"/>
			<point x="24.775" y="-127.639" type="line"/>
			<point x="0.225" y="-132.361" type="line"/>
			<point x="-24.775" y="-2.361" type="line"/>
		</contour>
	</outline>
</glyph>
<glyph name="neg.-19" format="2">
	<advance width="25"/>
	<outline>
		<contour>
			<point x="-0.107" y="1.631" type="line"/>
			<point x="24.893" y="-188.369" type="line"/>
			<point x="0.107" y="-191.631" type="line"/>
			<point x="-24.893" y="-1.631" type="line"/>
		</contour>
	</outline>
</glyph>
<glyph name="neg.-2" format="2">
	<advance width="25"/>
	<outline>
		<contour>
			<point x="-4.691" y="9.761" type="line"/>
			<point x="20.309" y="-10.239" type="line"/>
			<point x="4.691" y="-29.761" type="line"/>
			<point x="-20.309" y="-9.761" type="line"/>
		</contour>
	</outline>
</glyph>
<glyph name="neg.-24" format="2">
	<advance width="25"/>
	<outline>
		<contour>
			<point x="-0.067" y="1.295" type="line"/>
			<point x="24.933" y="-238.705" type="line"/>
			<point x="0.067" y="-241.295" type="line"/>
			<point x="-24.933" y="-1.295" type="line"/>
		</contour>
	</outline>
</glyph>
<glyph name="neg.-25" format="2">
	<advance width="25"/>
	<outline>
		<contour>
			<point x="-0.062" y="1.244" type="line"/>
			<point x="24.938" y="-248.756" type="line"/>
			<point x="0.062" y="-251.244" type="line"/>
			<point x="-24.938" y="-1.244" type="line"/>
		</contour>
	</outline>
</glyph>
<glyph name="neg.-27" format="2">
	<advance width="25"/>
	<outline>
		<contour>
			<point x="-0.053" y="1.152" type="line"/>
			<point x="24.947" y="-268.848" type="line"/>
			<point x="0.053" y="-271.152" type="line"/>
			<point x="-24.947" y="-1.152" type="line"/>
		</contour>
	</outline>
</glyph>
<glyph name="neg.-29" format="2">
	<advance width="25"/>
	<outline>
		<contour>
			<point x="-0.046" y="1.074" type="line"/>
			<point x="24.954" y="-288.926" type="line"/>
			<point x="0.046" y="-291.074" type="line"/>
			<point x="-24.954" y="-1.074" type="line"/>
		</contour>
	</outline>
</glyph>
<glyph name="neg.-31" format="2">
	<advance width="25"/>
	<outline>
		<contour>
			<point x="-0.04" y="1.005" type="line"/>
			<point x="24.96" y="-308.995" type="line"/>
			<point x="0.04" y="-311.005" type="line"/>
			<point x="-24.96" y="-1.005" type="line"/>
		</contour>
	</outline>
</glyph>
<glyph name="neg.-33" format="2">
	<advance width="25"/>
	<outline>
		<contour>
			<point x="-0.036" y="0.944" type="line"/>
			<point x="24.964" y="-329.056" type="line"/>
			<point x="0.036" y="-330.944" type="line"/>
			<point x="-24.964" y="-0.944" type="line"/>
		</contour>
	</outline>
</glyph>
<glyph name="neg.-35" format="2">
	<advance width="25"/>
	<outline>
		<contour>
			<point x="-0.032" y="0.891" type="line"/>
			<point x="24.968" y="-349.109" type="line"/>
			<point x="0.032" y="-350.891" type="line"/>
			<point x="-24.968" y="-0.891" type="line"/>
		</contour>
	</outline>
</glyph>
<glyph name="neg.-37" format="2">
	<advance width="25"/>
	<outline>
		<contour>
			<point x="-0.028" y="0.843" type="line"/>
			<point x="24.972" y="-369.157" type="line"/>
			<point x="0.028" y="-370.843" type="line"/>
			<point x="-24.972" y="-0.843" type="line"/>
		</contour>
	</outline>
</glyph>
<glyph name="neg.-38" format="2">
	<advance width="25"/>
	<outline>
		<contour>
			<point x="-0.027" y="0.821" type="line"/>
			<point x="24.973" y="-379.179" type="line"/>
			<point x="0.027" y="-380.821" type="line"/>
			<point x="-24.973" y="-0.821" type="line"/>
		</contour>
	</outline>
</glyph>
<glyph name="neg.-4" format="2">
	<advance width="25"/>
	<outline>
		<contour>
			<point x="-1.9" y="6.625" type="line"/>
			<point x="23.1" y="-33.375" type="line"/>
			<point x="1.9" y="-46.625" type="line"/>
			<point x="-23.1" y="-6.625" type="line"/>
		</contour>
	</outline>
</glyph>
<glyph name="neg.-40" format="2">
	<advance width="25"/>
	<outline>
		<contour>
			<point x="-0.024" y="0.78" type="line"/>
			<point x="24.976" y="-399.22" type="line"/>
			<point x="0.024" y="-400.78" type="line"/>
			<point x="-24.976" y="-0.78" type="line"/>
		</contour>
	</outline>
</glyph>
<glyph name="neg.-41" format="2">
	<advance width="25"/>
	<outline>
		<contour>
			<point x="-0.023" y="0.761" type="line"/>
			<point x="24.977" y="-409.239" type="line"/>
			<point x="0.023" y="-410.761" type="line"/>
			<point x="-24.977" y="-0.761" type="line"/>
		</contour>
	</outline>
</glyph>
<glyph name="neg.-45" format="2">
	<advance width="25"/>
	<outline>
		<contour>
			<point x="-0.019" y="0.693" type="line"/>
			<point x="24.981" y="-449.307" type="line"/>
			<point x="0.019" y="-450.693" type="line"/>
			<point x="-24.981" y="-0.693" type="line"/>
		</contour>
	</outline>
</glyph>
<glyph name="neg.-48" format="2">
	<advance width="25"/>
	<outline>
		<contour>
			<point x="-0.017" y="0.65" type="line"/>
			<point x="24.983" y="-479.35" type="line"/>
			<point x="0.017" y="-480.65" type="line"/>
			<point x="-24.983" y="-0.65" type="line"/>
		</contour>
	</outline>
</glyph>
<glyph name="neg.-49" format="2">
	<advance width="25"/>
	<outline>
		<contour>
			<point x="-0.016" y="0.637" type="line"/>
			<point x="24.984" y="-489.363" type="line"/>
			<point x="0.016" y="-490.637" type="line"/>
			<point x="-24.984" y="-0.637" type="line"/>
		</contour>
	</outline>
</glyph>
<glyph name="neg.-5" format="2">
	<advance width="25"/>
	<outline>
		<contour>
			<point x="-1.32" y="5.59" type="line"/>
			<point x="23.68" y="-44.41" type="line"/>
			<point x="1.32" y="-55.59" type="line"/>
			<point x="-23.68" y="-5.59" type="line"/>
		</contour>
	</outline>
</glyph>
<glyph name="neg.-50" format="2">
	<advance width="25"/>
	<outline>
		<contour>
			<point x="-0.016" y="0.624" type="line"/>
			<point x="24.984" y="-499.376" type="line"/>
			<point x="0.016" y="-500.624" type="line"/>
			<point x="-24.984" y="-0.624" type="line"/>
		</contour>
	</outline>
</glyph>
<glyph name="neg.-53" format="2">
	<advance width="25"/>
	<outline>
		<contour>
			<point x="-0.014" y="0.589" type="line"/>
			<point x="24.986" y="-529.411" type="line"/>
			<point x="0.014" y="-530.589" type="line"/>
			<point x="-24.986" y="-0.589" type="line"/>
		</contour>
	</outline>
</glyph>
<glyph name="neg.-54" format="2">
	<advance width="25"/>
	<outline>
		<contour>
			<point x="-0.013" y="0.578" type="line"/>
			<point x="24.987" y="-539.422" type="line"/>
			<point x="0.013" y="-540.578" type="line"/>
			<point x="-24.987" y="-0.578" type="line"/>
		</contour>
	</outline>
</glyph>
<glyph name="neg.-59" format="2">
	<advance width="25"/>
	<outline>
		<contour>
			<point x="-0.011" y="0.529" type="line"/>
			<point x="24.989" y="-589.471" type="line"/>
			<point x="0.011" y="-590.529" type="line"/>
			<point x="-24.989" y="-0.529" type="line"/>
		</contour>
	</outline>
</glyph>
<glyph name="neg.-62" format="2">
	<advance width="25"/>
	<outline>
		<contour>
			<point x="-0.01" y="0.504" type="line"/>
			<point x="24.99" y="-619.496" type="line"/>
			<point x="0.01" y="-620.504" type="line"/>
			<point x="-24.99" y="-0.504" type="line"/>
		</contour>
	</outline>
</glyph>
<glyph name="neg.-63" format="2">
	<advance width="25"/>
	<outline>
		<contour>
			<point x="-0.01" y="0.496" type="line"/>
			<point x="24.99" y="-629.504" type="line"/>
			<point x="0.01" y="-630.496" type="line"/>
			<point x="-24.99" y="-0.496" type="line"/>
		</contour>
	</outline>
</glyph>
<glyph name="neg.-67" format="2">
	<advance width="25"/>
	<outline>
		<contour>
			<point x="-0.009" y="0.466" type="line"/>
			<point x="24.991" y="-669.534" type="line"/>
			<point x="0.009" y="-670.466" type="line"/>
			<point x="-24.991" y="-0.466" type="line"/>
		</contour>
	</outline>
</glyph>
<glyph name="neg.-69" format="2">
	<advance width="25"/>
	<outline>
		<contour>
			<point x="-0.008" y="0.453" type="line"/>
			<point x="24.992" y="-689.547" type="line"/>
			<point x="0.008" y="-690.453" type="line"/>
			<point x="-24.992" y="-0.453" type="line"/>
		</contour>
	</outline>
</glyph>
<glyph name="neg.-70" format="2">
	<advance width="25"/>
	<outline>
		<contour>
			<point x="-0.008" y="0.446" type="line"/>
			<point x="24.992" y="-699.554" type="line"/>
			<point x="0.008" y="-700.446" type="line"/>
			<point x="-24.992" y="-0.446" type="line"/>
		</contour>
	</outline>
</glyph>
<glyph name="neg.-72" format="2">
	<advance width="25"/>
	<outline>
		<contour>
			<point x="-0.008" y="0.434" type="line"/>
			<point x="24.992" y="-719.566" type="line"/>
			<point x="0.008" y="-720.434" type="line"/>
			<point x="-24.992" y="-0.434" type="line"/>
		</contour>
	</outline>
</glyph>
<glyph name="neg.-73" format="2">
	<advance width="25"/>
	<outline>
		<contour>
			<point x="-0.007" y="0.428" type="line"/>
			<point x="24.993" y="-729.572" type="line"/>
			<point x="0.007" y="-730.428" type="line"/>
			<point x="-24.993" y="-0.428" type="line"/>
		</contour>
	</outline>
</glyph>
<glyph name="neg.-74" format="2">
	<advance width="25"/>
	<outline>
		<contour>
			<point x="-0.007" y="0.422" type="line"/>
			<point x="24.993" y="-739.578" type="line"/>
			<point x="0.007" y="-740.422" type="line"/>
			<point x="-24.993" y="-0.422" type="line"/>
		</contour>
	</outline>
</glyph>
<glyph name="neg.-75" format="2">
	<advance width="25"/>
	<outline>
		<contour>
			<point x="-0.007" y="0.416" type="line"/>
			<point x="24.993" y="-749.584" type="line"/>
			<point x="0.007" y="-750.416" type="line"/>
			<point x="-24.993" y="-0.416" type="line"/>
		</contour>
	</outline>
</glyph>
<glyph name="neg.-76" format="2">
	<advance width="25"/>
	<outline>
		<contour>
			<point x="-0.007" y="0.411" type="line"/>
			<point x="24.993" y="-759.589" type="line"/>
			<point x="0.007" y="-760.411" type="line"/>
			<point x="-24.993" y="-0.411" type="line"/>
		</contour>
	</outline>
</glyph>
<glyph name="neg.-77" format="2">
	<advance width="25"/>
	<outline>
		<contour>
			<point x="-0.007" y="0.406" type="line"/>
			<point x="24.993" y="-769.594" type="line"/>
			<point x="0.007" y="-770.406" type="line"/>
			<point x="-24.993" y="-0.406" type="line"/>
		</contour>
	</outline>
</glyph>
<glyph name="neg.-81" format="2">
	<advance width="25"/>
	<outline>
		<contour>
			<point x="-0.006" y="0.386" type="line"/>
			<point x="24.994" y="-809.614" type="line"/>
			<point x="0.006" y="-810.386" type="line"/>
			<point x="-24.994" y="-0.386" type="line"/>
		</contour>
	</outline>
</glyph>
<glyph name="neg.-86" format="2">
	<advance width="25"/>
	<outline>
		<contour>
			<point x="-0.005" y="0.363" type="line"/>
			<point x="24.995" y="-859.637" type="line"/>
			<point x="0.005" y="-860.363" type="line"/>
			<point x="-24.995" y="-0.363" type="line"/>
		</contour>
	</outline>
</glyph>
<glyph name="neg.-9" format="2">
	<advance width="25"/>
	<outline>
		<contour>
			<point x="-0.456" y="3.346" type="line"/>
			<point x="24.544" y="-86.654" type="line"/>
			<point x="0.456" y="-93.346" type="line"/>
			<point x="-24.544" y="-3.346" type="line"/>
		</contour>
	</outline>
</glyph>
<glyph name="neg.-90" format="2">
	<advance width="25"/>
	<outline>
		<contour>
			<point x="-0.005" y="0.347" type="line"/>
			<point x="24.995" y="-899.653" type="line"/>
			<point x="0.005" y="-900.347" type="line"/>
			<point x="-24.995" y="-0.347" type="line"/>
		</contour>
	</outline>
</glyph>
<glyph name="neg.-91" format="2">
	<advance width="25"/>
	<outline>
		<contour>
			<point x="-0.005" y="0.343" type="line"/>
			<point x="24.995" y="-909.657" type="line"/>
			<point x="0.005" y="-910.343" type="line"/>
			<point x="-24.995" y="-0.343" type="line"/>
		</contour>
	</outline>
</glyph>
<glyph name="neg.-92" format="2">
	<advance width="25"/>
	<outline>
		<contour>
			<point x="-0.005" y="0.34" type="line"/>
			<point x="24.995" y="-919.66" type="line"/>
			<point x="0.005" y="-920.34" type="line"/>
			<point x="-24.995" y="-0.34" type="line"/>
		</contour>
	</outline>
</glyph>
<glyph name="neg.-94" format="2">
	<advance width="25"/>
	<outline>
		<contour>
			<point x="-0.004" y="0.332" type="line"/>
			<point x="24.996" y="-939.668" type="line"/>
			<point x="0.004" y="-940.332" type="line"/>
			<point x="-24.996" y="-0.332" type="line"/>
		</contour>
	</outline>
</glyph>
<glyph name="neg.-95" format="2">
	<advance width="25"/>
	<outline>
		<contour>
			<point x="-0.004" y="0.329" type="line"/>
			<point x="24.996" y="-949.671" type="line"/>
			<point x="0.004" y="-950.329" type="line"/>
			<point x="-24.996" y="-0.329" type="line"/>
		</contour>
	</outline>
</glyph>
<glyph name="neg.-96" format="2">
	<advance width="25"/>
	<outline>
		<contour>
			<point x="-0.004" y="0.325" type="line"/>
			<point x="24.996" y="-959.675" type="line"/>
			<point x="0.004" y="-960.325" type="line"/>
			<point x="-24.996" y="-0.325" type="line"/>
		</contour>
	</outline>
</glyph>
<glyph name="neg.-97" format="2">
	<advance width="25"/>
	<outline>
		<contour>
			<point x="-0.004" y="0.322" type="line"/>
			<point x="24.996" y="-969.678" type="line"/>
			<point x="0.004" y="-970.322" type="line"/>
			<point x="-24.996" y="-0.322" type="line"/>
		</contour>
	</outline>
</glyph>
<glyph name="neg.-98" format="2">
	<advance width="25"/>
	<outline>
		<contour>
			<point x="-0.004" y="0.319" type="line"/>
			<point x="24.996" y="-979.681" type="line"/>
			<point x="0.004" y="-980.319" type="line"/>
			<point x="-24.996" y="-0.319" type="line"/>
		</contour>
	</outline>
</glyph>
<glyph name="pos.1" format="2">
	<advance width="25"/>
	<outline>
		<contour>
			<point x="-17.142" y="11.606" type="line"/>
			<point x="7.858" y="21.606" type="line"/>
			<point x="17.142" y="-1.606" type="line"/>
			<point x="-7.858" y="-11.606" type="line"/>
		</contour>
	</outline>
</glyph>
<glyph name="pos.10" format="2">
	<advance width="25"/>
	<outline>
		<contour>
			<point x="-24.627" y="3.032" type="line"/>
			<point x="0.373" y="103.032" type="line"/>
			<point x="24.627" y="96.968" type="line"/>
			<point x="-0.373" y="-3.032" type="line"/>
		</contour>
	</outline>
</glyph>
<glyph name="pos.100" format="2">
	<advance width="25"/>
	<outline>
		<contour>
			<point x="-24.996" y="0.312" type="line"/>
			<point x="0.004" y="1000.312" type="line"/>
			<point x="24.996" y="999.688" type="line"/>
			<point x="-0.004" y="-0.312" type="line"/>
		</contour>
	</outline>
</glyph>
<glyph name="pos.102" format="2">
	<advance width="25"/>
	<outline>
		<contour>
			<point x="-24.996" y="0.306" type="line"/>
			<point x="0.004" y="1020.306" type="line"/>
			<point x="24.996" y="1019.694" type="line"/>
			<point x="-0.004" y="-0.306" type="line"/>
		</contour>
	</outline>
</glyph>
<glyph name="pos.105" format="2">
	<advance width="25"/>
	<outline>
		<contour>
			<point x="-24.996" y="0.298" type="line"/>
			<point x="0.004" y="1050.298" type="line"/>
			<point x="24.996" y="1049.702" type="line"/>
			<point x="-0.004" y="-0.298" type="line"/>
		</contour>
	</outline>
</glyph>
<glyph name="pos.106" format="2">
	<advance width="25"/>
	<outline>
		<contour>
			<point x="-24.997" y="0.295" type="line"/>
			<point x="0.003" y="1060.295" type="line"/>
			<point x="24.997" y="1059.705" type="line"/>
			<point x="-0.003" y="-0.295" type="line"/>
		</contour>
	</outline>
</glyph>
<glyph name="pos.107" format="2">
	<advance width="25"/>
	<outline>
		<contour>
			<point x="-24.997" y="0.292" type="line"/>
			<point x="0.003" y="1070.292" type="line"/>
			<point x="24.997" y="1069.708" type="line"/>
			<point x="-0.003" y="-0.292" type="line"/>
		</contour>
	</outline>
</glyph>
<glyph name="pos.112" format="2">
	<advance width="25"/>
	<outline>
		<contour>
			<point x="-24.997" y="0.279" type="line"/>
			<point x="0.003" y="1120.279" type="line"/>
			<point x="24.997" y="1119.721" type="line"/>
			<point x="-0.003" y="-0.279" type="line"/>
		</contour>
	</outline>
</glyph>
<glyph name="pos.115" format="2">
	<advance width="25"/>
	<outline>
		<contour>
			<point x="-24.997" y="0.272" type="line"/>
			<point x="0.003" y="1150.272" type="line"/>
			<point x="24.997" y="1149.728" type="line"/>
			<point x="-0.003" y="-0.272" type="line"/>
		</contour>
	</outline>
</glyph>
<glyph name="pos.116" format="2">
	<advance width="25"/>
	<outline>
		<contour>
			<point x="-24.997" y="0.269" type="line"/>
			<point x="0.003" y="1160.269" type="line"/>
			<point x="24.997" y="1159.731" type="line"/>
			<point x="-0.003" y="-0.269" type="line"/>
		</contour>
	</outline>
</glyph>
<glyph name="pos.117" format="2">
	<advance width="25"/>
	<outline>
		<contour>
			<point x="-24.997" y="0.267" type="line"/>
			<point x="0.003" y="1170.267" type="line"/>
			<point x="24.997" y="1169.733" type="line"/>
			<point x="-0.003" y="-0.267" type="line"/>
		</contour>
	</outline>
</glyph>
<glyph name="pos.118" format="2">
	<advance width="25"/>
	<outline>
		<contour>
			<point x="-24.997" y="0.265" type="line"/>
			<point x="0.003" y="1180.265" type="line"/>
			<point x="24.997" y="1179.735" type="line"/>
			<point x="-0.003" y="-0.265" type="line"/>
		</contour>
	</outline>
</glyph>
<glyph name="pos.12" format="2">
	<advance width="25"/>
	<outline>
		<contour>
			<point x="-24.737" y="2.549" type="line"/>
			<point x="0.263" y="122.549" type="line"/>
			<point x="24.737" y="117.451" type="line"/>
			<point x="-0.263" y="-2.549" type="line"/>
		</contour>
	</outline>
</glyph>
<glyph name="pos.121" format="2">
	<advance width="25"/>
	<outline>
		<contour>
			<point x="-24.997" y="0.258" type="line"/>
			<point x="0.003" y="1210.258" type="line"/>
			<point x="24.997" y="1209.742" type="line"/>
			<point x="-0.003" y="-0.258" type="line"/>
		</contour>
	</outline>
</glyph>
<glyph name="pos.123" format="2">
	<advance width="25"/>
	<outline>
		<contour>
			<point x="-24.997" y="0.254" type="line"/>
			<point x="0.003" y="1230.254" type="line"/>
			<point x="24.997" y="1229.746" type="line"/>
			<point x="-0.003" y="-0.254" type="line"/>
		</contour>
	</outline>
</glyph>
<glyph name="pos.124" format="2">
	<advance width="25"/>
	<outline>
		<contour>
			<point x="-24.997" y="0.252" type="line"/>
			<point x="0.003" y="1240.252" type="line"/>
			<point x="24.997" y="1239.748" type="line"/>
			<point x="-0.003" y="-0.252" type="line"/>
		</contour>
	</outline>
</glyph>
<glyph name="pos.125" format="2">
	<advance width="25"/>
	<outline>
		<contour>
			<point x="-24.998" y="0.25" type="line"/>
			<point x="0.002" y="1250.25" type="line"/>
			<point x="24.998" y="1249.75" type="line"/>
			<point x="-0.002" y="-0.25" type="line"/>
		</contour>
	</outline>
</glyph>
<glyph name="pos.126" format="2">
	<advance width="25"/>
	<outline>
		<contour>
			<point x="-24.998" y="0.248" type="line"/>
			<point x="0.002" y="1260.248" type="line"/>
			<point x="24.998" y="1259.752" type="line"/>
			<point x="-0.002" y="-0.248" type="line"/>
		</contour>
	</outline>
</glyph>
<glyph name="pos.14" format="2">
	<advance width="25"/>
	<outline>
		<contour>
			<point x="-24.805" y="2.197" type="line"/>
			<point x="0.195" y="142.197" type="line"/>
			<point x="24.805" y="137.803" type="line"/>
			<point x="-0.195" y="-2.197" type="line"/>
		</contour>
	</outline>
</glyph>
<glyph name="pos.15" format="2">
	<advance width="25"/>
	<outline>
		<contour>
			<point x="-24.83" y="2.055" type="line"/>
			<point x="0.17" y="152.055" type="line"/>
			<point x="24.83" y="147.945" type="line"/>
			<point x="-0.17" y="-2.055" type="line"/>
		</contour>
	</outline>
</glyph>
<glyph name="pos.16" format="2">
	<advance width="25"/>
	<outline>
		<contour>
			<point x="-24.85" y="1.93" type="line"/>
			<point x="0.15" y="161.93" type="line"/>
			<point x="24.85" y="158.07" type="line"/>
			<point x="-0.15" y="-1.93" type="line"/>
		</contour>
	</outline>
</glyph>
<glyph name="pos.17" format="2">
	<advance width="25"/>
	<outline>
		<contour>
			<point x="-24.867" y="1.819" type="line"/>
			<point x="0.133" y="171.819" type="line"/>
			<point x="24.867" y="168.181" type="line"/>
			<point x="-0.133" y="-1.819" type="line"/>
		</contour>
	</outline>
</glyph>
<glyph name="pos.18" format="2">
	<advance width="25"/>
	<outline>
		<contour>
			<point x="-24.881" y="1.72" type="line"/>
			<point x="0.119" y="181.72" type="line"/>
			<point x="24.881" y="178.28" type="line"/>
			<point x="-0.119" y="-1.72" type="line"/>
		</contour>
	</outline>
</glyph>
<glyph name="pos.20" format="2">
	<advance width="25"/>
	<outline>
		<contour>
			<point x="-24.903" y="1.55" type="line"/>
			<point x="0.097" y="201.55" type="line"/>
			<point x="24.903" y="198.45" type="line"/>
			<point x="-0.097" y="-1.55" type="line"/>
		</contour>
	</outline>
</glyph>
<glyph name="pos.21" format="2">
	<advance width="25"/>
	<outline>
		<contour>
			<point x="-24.912" y="1.478" type="line"/>
			<point x="0.088" y="211.478" type="line"/>
			<point x="24.912" y="208.522" type="line"/>
			<point x="-0.088" y="-1.478" type="line"/>
		</contour>
	</outline>
</glyph>
<glyph name="pos.22" format="2">
	<advance width="25"/>
	<outline>
		<contour>
			<point x="-24.92" y="1.411" type="line"/>
			<point x="0.08" y="221.411" type="line"/>
			<point x="24.92" y="218.589" type="line"/>
			<point x="-0.08" y="-1.411" type="line"/>
		</contour>
	</outline>
</glyph>
<glyph name="pos.23" format="2">
	<advance width="25"/>
	<outline>
		<contour>
			<point x="-24.927" y="1.351" type="line"/>
			<point x="0.073" y="231.351" type="line"/>
			<point x="24.927" y="228.649" type="line"/>
			<point x="-0.073" y="-1.351" type="line"/>
		</contour>
	</outline>
</glyph>
<glyph name="pos.26" format="2">
	<advance width="25"/>
	<outline>
		<contour>
			<point x="-24.943" y="1.196" type="line"/>
			<point x="0.057" y="261.196" type="line"/>
			<point x="24.943" y="258.804" type="line"/>
			<point x="-0.057" y="-1.196" type="line"/>
		</contour>
	</outline>
</glyph>
<glyph name="pos.28" format="2">
	<advance width="25"/>
	<outline>
		<contour>
			<point x="-24.95" y="1.112" type="line"/>
			<point x="0.05" y="281.112" type="line"/>
			<point x="24.95" y="278.888" type="line"/>
			<point x="-0.05" y="-1.112" type="line"/>
		</contour>
	</outline>
</glyph>
<glyph name="pos.3" format="2">
	<advance width="25"/>
	<outline>
		<contour>
			<point x="-22.103" y="8.002" type="line"/>
			<point x="2.897" y="38.002" type="line"/>
			<point x="22.103" y="21.998" type="line"/>
			<point x="-2.897" y="-8.002" type="line"/>
		</contour>
	</outline>
</glyph>
<glyph name="pos.30" format="2">
	<advance width="25"/>
	<outline>
		<contour>
			<point x="-24.957" y="1.038" type="line"/>
			<point x="0.043" y="301.038" type="line"/>
			<point x="24.957" y="298.962" type="line"/>
			<point x="-0.043" y="-1.038" type="line"/>
		</contour>
	</outline>
</glyph>
<glyph name="pos.32" format="2">
	<advance width="25"/>
	<outline>
		<contour>
			<point x="-24.962" y="0.974" type="line"/>
			<point x="0.038" y="320.974" type="line"/>
			<point x="24.962" y="319.026" type="line"/>
			<point x="-0.038" y="-0.974" type="line"/>
		</contour>
	</outline>
</glyph>
<glyph name="pos.34" format="2">
	<advance width="25"/>
	<outline>
		<contour>
			<point x="-24.966" y="0.917" type="line"/>
			<point x="0.034" y="340.917" type="line"/>
			<point x="24.966" y="339.083" type="line"/>
			<point x="-0.034" y="-0.917" type="line"/>
		</contour>
	</outline>
</glyph>
<glyph name="pos.36" format="2">
	<advance width="25"/>
	<outline>
		<contour>
			<point x="-24.97" y="0.866" type="line"/>
			<point x="0.03" y="360.866" type="line"/>
			<point x="24.97" y="359.134" type="line"/>
			<point x="-0.03" y="-0.866" type="line"/>
		</contour>
	</outline>
</glyph>
<glyph name="pos.39" format="2">
	<advance width="25"/>
	<outline>
		<contour>
			<point x="-24.974" y="0.8" type="line"/>
			<point x="0.026" y="390.8" type="line"/>
			<point x="24.974" y="389.2" type="line"/>
			<point x="-0.026" y="-0.8" type="line"/>
		</contour>
	</outline>
</glyph>
<glyph name="pos.42" format="2">
	<advance width="25"/>
	<outline>
		<contour>
			<point x="-24.978" y="0.743" type="line"/>
			<point x="0.022" y="420.743" type="line"/>
			<point x="24.978" y="419.257" type="line"/>
			<point x="-0.022" y="-0.743" type="line"/>
		</contour>
	</outline>
</glyph>
<glyph name="pos.43" format="2">
	<advance width="25"/>
	<outline>
		<contour>
			<point x="-24.979" y="0.726" type="line"/>
			<point x="0.021" y="430.726" type="line"/>
			<point x="24.979" y="429.274" type="line"/>
			<point x="-0.021" y="-0.726" type="line"/>
		</contour>
	</outline>
</glyph>
<glyph name="pos.44" format="2">
	<advance width="25"/>
	<outline>
		<contour>
			<point x="-24.98" y="0.709" type="line"/>
			<point x="0.02" y="440.709" type="line"/>
			<point x="24.98" y="439.291" type="line"/>
			<point x="-0.02" y="-0.709" type="line"/>
		</contour>
	</outline>
</glyph>
<glyph name="pos.46" format="2">
	<advance width="25"/>
	<outline>
		<contour>
			<point x="-24.982" y="0.678" type="line"/>
			<point x="0.018" y="460.678" type="line"/>
			<point x="24.982" y="459.322" type="line"/>
			<point x="-0.018" y="-0.678" type="line"/>
		</contour>
	</outline>
</glyph>
<glyph name="pos.47" format="2">
	<advance width="25"/>
	<outline>
		<contour>
			<point x="-24.982" y="0.664" type="line"/>
			<point x="0.018" y="470.664" type="line"/>
			<point x="24.982" y="469.336" type="line"/>
			<point x="-0.018" y="-0.664" type="line"/>
		</contour>
	</outline>
</glyph>
<glyph name="pos.51" format="2">
	<advance width="25"/>
	<outline>
		<contour>
			<point x="-24.985" y="0.612" type="line"/>
			<point x="0.015" y="510.612" type="line"/>
			<point x="24.985" y="509.388" type="line"/>
			<point x="-0.015" y="-0.612" type="line"/>
		</contour>
	</outline>
</glyph>
<glyph name="pos.52" format="2">
	<advance width="25"/>
	<outline>
		<contour>
			<point x="-24.986" y="0.6" type="line"/>
			<point x="0.014" y="520.6" type="line"/>
			<point x="24.986" y="519.4" type="line"/>
			<point x="-0.014" y="-0.6" type="line"/>
		</contour>
	</outline>
</glyph>
<glyph name="pos.55" format="2">
	<advance width="25"/>
	<outline>
		<contour>
			<point x="-24.987" y="0.568" type="line"/>
			<point x="0.013" y="550.568" type="line"/>
			<point x="24.987" y="549.432" type="line"/>
			<point x="-0.013" y="-0.568" type="line"/>
		</contour>
	</outline>
</glyph>
<glyph name="pos.56" format="2">
	<advance width="25"/>
	<outline>
		<contour>
			<point x="-24.988" y="0.557" type="line"/>
			<point x="0.012" y="560.557" type="line"/>
			<point x="24.988" y="559.443" type="line"/>
			<point x="-0.012" y="-0.557" type="line"/>
		</contour>
	</outline>
</glyph>
<glyph name="pos.57" format="2">
	<advance width="25"/>
	<outline>
		<contour>
			<point x="-24.988" y="0.548" type="line"/>
			<point x="0.012" y="570.548" type="line"/>
			<point x="24.988" y="569.452" type="line"/>
			<point x="-0.012" y="-0.548" type="line"/>
		</contour>
	</outline>
</glyph>
<glyph name="pos.58" format="2">
	<advance width="25"/>
	<outline>
		<contour>
			<point x="-24.988" y="0.538" type="line"/>
			<point x="0.012" y="580.538" type="line"/>
			<point x="24.988" y="579.462" type="line"/>
			<point x="-0.012" y="-0.538" type="line"/>
		</contour>
	</outline>
</glyph>
<glyph name="pos.6" format="2">
	<advance width="25"/>
	<outline>
		<contour>
			<point x="-24.038" y="4.808" type="line"/>
			<point x="0.962" y="64.808" type="line"/>
			<point x="24.038" y="55.192" type="line"/>
			<point x="-0.962" y="-4.808" type="line"/>
		</contour>
	</outline>
</glyph>
<glyph name="pos.60" format="2">
	<advance width="25"/>
	<outline>
		<contour>
			<point x="-24.989" y="0.52" type="line"/>
			<point x="0.011" y="600.52" type="line"/>
			<point x="24.989" y="599.48" type="line"/>
			<point x="-0.011" y="-0.52" type="line"/>
		</contour>
	</outline>
</glyph>
<glyph name="pos.61" format="2">
	<advance width="25"/>
	<outline>
		<contour>
			<point x="-24.99" y="0.512" type="line"/>
			<point x="0.01" y="610.512" type="line"/>
			<point x="24.99" y="609.488" type="line"/>
			<point x="-0.01" y="-0.512" type="line"/>
		</contour>
	</outline>
</glyph>
<glyph name="pos.64" format="2">
	<advance width="25"/>
	<outline>
		<contour>
			<point x="-24.99" y="0.488" type="line"/>
			<point x="0.01" y="640.488" type="line"/>
			<point x="24.99" y="639.512" type="line"/>
			<point x="-0.01" y="-0.488" type="line"/>
		</contour>
	</outline>
</glyph>
<glyph name="pos.65" format="2">
	<advance width="25"/>
	<outline>
		<contour>
			<point x="-24.991" y="0.48" type="line"/>
			<point x="0.009" y="650.48" type="line"/>
			<point x="24.991" y="649.52" type="line"/>
			<point x="-0.009" y="-0.48" type="line"/>
		</contour>
	</outline>
</glyph>
<glyph name="pos.66" format="2">
	<advance width="25"/>
	<outline>
		<contour>
			<point x="-24.991" y="0.473" type="line"/>
			<point x="0.009" y="660.473" type="line"/>
			<point x="24.991" y="659.527" type="line"/>
			<point x="-0.009" y="-0.473" type="line"/>
		</contour>
	</outline>
</glyph>
<glyph name="pos.68" format="2">
	<advance width="25"/>
	<outline>
		<contour>
			<point x="-24.992" y="0.459" type="line"/>
			<point x="0.008" y="680.459" type="line"/>
			<point x="24.992" y="679.541" type="line"/>
			<point x="-0.008" y="-0.459" type="line"/>
		</contour>
	</outline>
</glyph>
<glyph name="pos.7" format="2">
	<advance width="25"/>
	<outline>
		<contour>
			<point x="-24.272" y="4.204" type="line"/>
			<point x="0.728" y="74.204" type="line"/>
			<point x="24.272" y="65.796" type="line"/>
			<point x="-0.728" y="-4.204" type="line"/>
		</contour>
	</outline>
</glyph>
<glyph name="pos.71" format="2">
	<advance width="25"/>
	<outline>
		<contour>
			<point x="-24.992" y="0.44" type="line"/>
			<point x="0.008" y="710.44" type="line"/>
			<point x="24.992" y="709.56" type="line"/>
			<point x="-0.008" y="-0.44" type="line"/>
		</contour>
	</outline>
</glyph>
<glyph name="pos.74" format="2">
	<advance width="25"/>
	<outline>
		<contour>
			<point x="-24.993" y="0.422" type="line"/>
			<point x="0.007" y="740.422" type="line"/>
			<point x="24.993" y="739.578" type="line"/>
			<point x="-0.007" y="-0.422" type="line"/>
		</contour>
	</outline>
</glyph>
<glyph name="pos.76" format="2">
	<advance width="25"/>
	<outline>
		<contour>
			<point x="-24.993" y="0.411" type="line"/>
			<point x="0.007" y="760.411" type="line"/>
			<point x="24.993" y="759.589" type="line"/>
			<point x="-0.007" y="-0.411" type="line"/>
		</contour>
	</outline>
</glyph>
<glyph name="pos.78" format="2">
	<advance width="25"/>
	<outline>
		<contour>
			<point x="-24.994" y="0.4" type="line"/>
			<point x="0.006" y="780.4" type="line"/>
			<point x="24.994" y="779.6" type="line"/>
			<point x="-0.006" y="-0.4" type="line"/>
		</contour>
	</outline>
</glyph>
<glyph name="pos.79" format="2">
	<advance width="25"/>
	<outline>
		<contour>
			<point x="-24.994" y="0.395" type="line"/>
			<point x="0.006" y="790.395" type="line"/>
			<point x="24.994" y="789.605" type="line"/>
			<point x="-0.006" y="-0.395" type="line"/>
		</contour>
	</outline>
</glyph>
<glyph name="pos.8" format="2">
	<advance width="25"/>
	<outline>
		<contour>
			<point x="-24.431" y="3.728" type="line"/>
			<point x="0.569" y="83.728" type="line"/>
			<point x="24.431" y="76.272" type="line"/>
			<point x="-0.569" y="-3.728" type="line"/>
		</contour>
	</outline>
</glyph>
<glyph name="pos.80" format="2">
	<advance width="25"/>
	<outline>
		<contour>
			<point x="-24.994" y="0.39" type="line"/>
			<point x="0.006" y="800.39" type="line"/>
			<point x="24.994" y="799.61" type="line"/>
			<point x="-0.006" y="-0.39" type="line"/>
		</contour>
	</outline>
</glyph>
<glyph name="pos.82" format="2">
	<advance width="25"/>
	<outline>
		<contour>
			<point x="-24.994" y="0.381" type="line"/>
			<point x="0.006" y="820.381" type="line"/>
			<point x="24.994" y="819.619" type="line"/>
			<point x="-0.006" y="-0.381" type="line"/>
		</contour>
	</outline>
</glyph>
<glyph name="pos.83" format="2">
	<advance width="25"/>
	<outline>
		<contour>
			<point x="-24.994" y="0.376" type="line"/>
			<point x="0.006" y="830.376" type="line"/>
			<point x="24.994" y="829.624" type="line"/>
			<point x="-0.006" y="-0.376" type="line"/>
		</contour>
	</outline>
</glyph>
<glyph name="pos.84" format="2">
	<advance width="25"/>
	<outline>
		<contour>
			<point x="-24.994" y="0.372" type="line"/>
			<point x="0.006" y="840.372" type="line"/>
			<point x="24.994" y="839.628" type="line"/>
			<point x="-0.006" y="-0.372" type="line"/>
		</contour>
	</outline>
</glyph>
<glyph name="pos.87" format="2">
	<advance width="25"/>
	<outline>
		<contour>
			<point x="-24.995" y="0.359" type="line"/>
			<point x="0.005" y="870.359" type="line"/>
			<point x="24.995" y="869.641" type="line"/>
			<point x="-0.005" y="-0.359" type="line"/>
		</contour>
	</outline>
</glyph>
<glyph name="pos.88" format="2">
	<advance width="25"/>
	<outline>
		<contour>
			<point x="-24.995" y="0.355" type="line"/>
			<point x="0.005" y="880.355" type="line"/>
			<point x="24.995" y="879.645" type="line"/>
			<point x="-0.005" y="-0.355" type="line"/>
		</contour>
	</outline>
</glyph>
<glyph name="pos.89" format="2">
	<advance width="25"/>
	<outline>
		<contour>
			<point x="-24.995" y="0.351" type="line"/>
			<point x="0.005" y="890.351" type="line"/>
			<point x="24.995" y="889.649" type="line"/>
			<point x="-0.005" y="-0.351" type="line"/>
		</contour>
	</outline>
</glyph>
<glyph name="pos.91" format="2">
	<advance width="25"/>
	<outline>
		<contour>
			<point x="-24.995" y="0.343" type="line"/>
			<point x="0.005" y="910.343" type="line"/>
			<point x="24.995" y="909.657" type="line"/>
			<point x="-0.005" y="-0.343" type="line"/>
		</contour>
	</outline>
</glyph>
<glyph name="pos.93" format="2">
	<advance width="25"/>
	<outline>
		<contour>
			<point x="-24.995" y="0.336" type="line"/>
			<point x="0.005" y="930.336" type="line"/>
			<point x="24.995" y="929.664" type="line"/>
			<point x="-0.005" y="-0.336" type="line"/>
		</contour>
	</outline>
</glyph>
<glyph name="pos.99" format="2">
	<advance width="25"/>
	<outline>
		<contour>
			<point x="-24.996" y="0.316" type="line"/>
			<point x="0.004" y="990.316" type="line"/>
			<point x="24.996" y="989.684" type="line"/>
			<point x="-0.004" y="-0.316" type="line"/>
		</contour>
	</outline>
</glyph>
